<svg width="285" height="51" viewBox="0 0 285 51" fill="none" xmlns="http://www.w3.org/2000/svg">
<path fill-rule="evenodd" clip-rule="evenodd" d="M110.078 32.7752C110.301 33.2945 110.524 33.8879 110.748 34.4814C111.417 36.1876 111.566 37.8195 111.343 39.4515C110.822 42.8639 108.59 45.8311 105.316 47.1664C104.126 47.6856 102.861 47.9082 101.522 47.9082C101.15 47.9082 100.703 47.9082 100.331 47.834C98.7688 47.6856 97.2064 47.1664 95.6439 46.2762C93.7839 45.2377 91.9238 43.6799 89.8405 41.4544C87.7572 43.6799 85.9716 45.2377 84.0371 46.2762C82.4746 47.1664 80.9122 47.6115 79.3497 47.834C79.1637 47.834 78.9591 47.8526 78.7545 47.8711C78.5499 47.8897 78.3453 47.9082 78.1593 47.9082C76.82 47.9082 75.5552 47.6856 74.3648 47.1664C71.1654 45.8311 68.7846 42.938 68.2637 39.4515C68.0405 37.7454 68.2637 36.1134 68.859 34.4814C69.0822 33.8138 69.3054 33.2945 69.5286 32.7752L69.5286 32.7752C69.9006 31.9592 70.2726 31.1432 70.5702 30.4014L70.6446 30.3272C73.9183 23.3542 77.3409 16.307 80.9122 9.33395L81.061 9.03723C81.433 8.3696 81.805 7.62778 82.177 6.88597C82.2772 6.72899 82.3774 6.56927 82.4787 6.40786L82.4787 6.40784L82.4787 6.40783C82.9038 5.7302 83.3475 5.02281 83.8883 4.36381C85.4508 2.58346 87.534 1.54492 89.8405 1.54492C92.0726 1.54492 94.2303 2.58346 95.7183 4.43799C96.4623 5.25398 96.9832 6.14416 97.4296 6.96015C97.8016 7.70196 98.1736 8.44378 98.5456 9.11141L98.6944 9.40813C102.34 16.3812 105.763 23.4284 108.962 30.4014H109.036C109.334 31.1431 109.706 31.959 110.078 32.7748L110.078 32.7749L110.078 32.7749L110.078 32.7752ZM146.683 13.1913C146.683 14.8975 145.344 16.2328 143.633 16.2328C141.921 16.2328 140.582 14.8975 140.582 13.1913C140.582 11.4852 141.921 10.1499 143.633 10.1499C145.418 10.2241 146.683 11.5593 146.683 13.1913ZM134.258 19.2744V20.0162C134.258 20.0162 132.844 18.1617 129.719 18.1617C124.66 18.1617 120.717 22.0191 120.717 27.3601C120.717 32.627 124.66 36.5586 129.719 36.5586C132.844 36.5586 134.258 34.6299 134.258 34.6299V35.4459C134.258 35.8168 134.556 36.1135 134.928 36.1135H138.722V18.6067H134.928C134.481 18.6067 134.258 18.9035 134.258 19.2744ZM130.464 32.3304C132.176 32.3304 133.589 31.4402 134.259 30.4016V24.1704C133.589 23.2061 132.101 22.2417 130.464 22.2417C127.488 22.2417 125.182 24.0962 125.182 27.286C125.182 30.4758 127.488 32.3304 130.464 32.3304ZM141.402 18.6065H145.866V36.0391H141.402V18.6065ZM203.602 20.0163C203.602 20.0163 205.09 18.1617 208.14 18.1617C213.199 18.1617 217.143 22.0191 217.143 27.286C217.143 32.5529 213.199 36.4845 208.14 36.4845C205.015 36.4845 203.602 34.5558 203.602 34.5558V35.3718C203.602 35.7427 203.304 36.0394 202.932 36.0394H199.137V10.2243H203.602V20.0163ZM207.397 32.2559C205.686 32.2559 204.347 31.3657 203.603 30.3272V24.096C204.272 23.1316 205.76 22.1673 207.397 22.1673C210.373 22.1673 212.68 24.0218 212.68 27.2116C212.68 30.4014 210.373 32.2559 207.397 32.2559ZM196.831 36.1135V25.7281C196.831 22.7609 196.235 21.1289 194.747 19.8678C193.408 18.7551 191.771 18.1617 189.837 18.1617C188.125 18.1617 186.414 18.6809 185.075 20.0162V19.2744C185.075 18.9035 184.777 18.6067 184.405 18.6067H180.834V36.1135H185.298V23.9478C186.191 22.9093 187.605 22.2416 188.944 22.2416C191.399 22.2416 192.366 23.3543 192.366 26.2474V36.1135H196.831ZM169.971 18.1617C166.921 18.1617 165.433 20.0163 165.433 20.0163V10.2243H160.969V36.0394H164.763C165.135 36.0394 165.433 35.7427 165.433 35.3718V34.5558C165.433 34.5558 166.846 36.4845 169.971 36.4845C175.031 36.4845 178.974 32.5529 178.974 27.286C179.048 22.0191 175.105 18.1617 169.971 18.1617ZM165.434 30.3272C166.178 31.3657 167.517 32.2559 169.228 32.2559C172.204 32.2559 174.511 30.4014 174.511 27.2116C174.511 24.0218 172.204 22.1673 169.228 22.1673C167.591 22.1673 166.103 23.1316 165.434 24.096V30.3272ZM157.174 18.1617C158.513 18.1617 159.257 18.3842 159.257 18.3842V22.5383C159.257 22.5383 155.537 21.2773 153.23 23.9478V36.1135H148.766V18.6067H152.561C152.933 18.6067 153.23 18.9035 153.23 19.2744V20.0162C153.975 19.0518 155.76 18.1617 157.174 18.1617ZM89.7652 36.8554C87.2355 33.6656 85.5986 30.6984 85.0778 28.2504C84.8546 27.2119 84.7802 26.2475 84.929 25.4315C85.0034 24.6897 85.301 24.0221 85.673 23.5028C86.5659 22.2417 88.0539 21.4257 89.7652 21.4257C91.4764 21.4257 93.0389 22.1676 93.8573 23.5028C94.2293 24.0963 94.5269 24.6897 94.6013 25.4315C94.7501 26.2475 94.6757 27.2119 94.4525 28.2504C93.9317 30.6984 92.2949 33.6656 89.7652 36.8554ZM104.126 44.4958C106.432 43.6056 108.069 41.5285 108.367 39.0806C108.515 37.8195 108.367 36.7068 108.143 35.5199C108.063 35.2789 107.96 35.0379 107.848 34.7734C107.753 34.5494 107.65 34.3084 107.548 34.0362C107.362 33.6653 107.195 33.2759 107.027 32.8864C106.86 32.497 106.692 32.1075 106.506 31.7366V31.6624C103.307 24.7636 99.8846 17.7164 96.3133 10.8175L96.1645 10.5208C95.7925 9.77897 95.4205 9.03716 95.0485 8.36952C94.6764 7.62771 94.23 6.8859 93.7092 6.29245C92.742 5.17973 91.4027 4.58628 89.9891 4.58628C88.5754 4.58628 87.2362 5.17973 86.2689 6.29245C85.7481 6.96008 85.3017 7.62771 84.9297 8.36952C84.5577 9.11134 84.1857 9.85315 83.8136 10.5208L83.6648 10.8175C80.0191 17.7164 76.5966 24.7636 73.3973 31.6624L73.3229 31.7366C72.9509 32.4784 72.5788 33.2944 72.2812 34.0362C72.058 34.5555 71.8348 35.0748 71.686 35.5199C71.1652 36.8551 71.0908 37.9678 71.2396 39.1547C71.5372 41.5285 73.1741 43.6056 75.4805 44.57C76.5222 44.9409 77.7126 45.1634 78.9775 45.0151C80.1679 44.8667 81.3584 44.4958 82.5488 43.8282C84.1857 42.8638 85.8969 41.4544 87.8314 39.3031C84.7809 35.5199 82.8464 32.0333 82.1768 28.9919C81.8048 27.5825 81.7304 26.2472 81.9536 25.0603C82.1768 23.8734 82.5488 22.8349 83.2184 21.8705C84.6321 19.8676 87.0874 18.6065 89.7659 18.6065C92.4444 18.6065 94.8996 19.7934 96.3133 21.8705C96.9829 22.8349 97.3549 23.8734 97.5781 25.0603C97.7269 26.2472 97.6525 27.5825 97.3549 28.9919C96.6109 32.0333 94.7508 35.4457 91.7003 39.2289C93.6348 41.3802 95.2717 42.7896 96.9829 43.754C98.2478 44.4216 99.3638 44.7925 100.554 44.9409C101.819 45.0892 103.01 44.9409 104.126 44.4958Z" fill="#E74969"/>
</svg>
