<svg width="285" height="51" viewBox="0 0 285 51" fill="none" xmlns="http://www.w3.org/2000/svg">
<path fill-rule="evenodd" clip-rule="evenodd" d="M89.874 9.05559C89.874 10.5987 88.5281 11.9214 86.9578 11.9214C85.3875 11.9214 84.0416 10.5987 84.0416 9.05559C84.0416 7.51248 85.3875 6.18982 86.9578 6.18982C88.5281 6.18982 89.874 7.51248 89.874 9.05559ZM86.9569 14.2729C85.2371 14.2729 83.8912 15.5956 83.8912 17.2857C83.8912 18.9757 85.2371 20.2984 86.9569 20.2984C88.6768 20.2984 90.0227 18.9757 90.0227 17.2857C90.0227 15.5221 88.6768 14.2729 86.9569 14.2729ZM83.817 25.3683C83.817 23.6782 85.2377 22.2821 86.9575 22.2821C88.6773 22.2821 90.1728 23.6782 90.0981 25.3683C90.0981 27.0584 88.6773 28.4545 86.9575 28.4545C85.2377 28.4545 83.817 27.0584 83.817 25.3683ZM86.9569 30.4386C85.2371 30.4386 83.8912 31.7613 83.8912 33.4513C83.8912 35.1414 85.2371 36.4641 86.9569 36.4641C88.6768 36.4641 90.0227 35.1414 90.0227 33.4513C90.0227 31.8347 88.6768 30.4386 86.9569 30.4386ZM84.0416 41.6077C84.0416 40.0646 85.3875 38.7419 86.9578 38.7419C88.6028 38.7419 89.874 40.0646 89.874 41.6077C89.874 43.1508 88.5281 44.4735 86.9578 44.4735C85.3875 44.4735 84.0416 43.1508 84.0416 41.6077ZM95.033 13.9054C93.1636 13.9054 91.5933 15.4485 91.5933 17.2855C91.5933 19.1226 93.1636 20.6657 95.033 20.6657C96.9023 20.6657 98.4726 19.1226 98.4726 17.2855C98.4726 15.4485 96.9023 13.9054 95.033 13.9054ZM91.445 25.4419C91.445 23.4579 93.09 21.9148 95.0342 21.9148C96.9783 21.9148 98.6233 23.4579 98.6233 25.4419C98.6233 27.4259 96.9783 28.969 95.0342 28.969C93.0152 28.969 91.445 27.3524 91.445 25.4419ZM95.033 30.0713C93.1636 30.0713 91.5933 31.6144 91.5933 33.4515C91.5933 35.2885 93.1636 36.8316 95.033 36.8316C96.9023 36.8316 98.4726 35.2885 98.4726 33.4515C98.4726 31.6144 96.9023 30.0713 95.033 30.0713ZM99.3717 25.3684C99.3717 23.1639 101.241 21.4739 103.335 21.4739C105.428 21.4739 107.148 23.1639 107.298 25.3684C107.298 27.5728 105.578 29.2629 103.335 29.2629C101.092 29.2629 99.3717 27.4259 99.3717 25.3684ZM78.8082 14.6402C77.3875 14.6402 76.1911 15.8159 76.1911 17.2121C76.1911 18.6082 77.3875 19.7839 78.8082 19.7839C80.2289 19.7839 81.4253 18.6082 81.4253 17.2121C81.4253 15.8159 80.3037 14.6402 78.8082 14.6402ZM76.0407 25.3684C76.0407 23.8253 77.237 22.6496 78.8073 22.6496C80.3776 22.6496 81.574 23.8253 81.574 25.3684C81.574 26.9116 80.3776 28.0873 78.8073 28.0873C77.237 28.0873 76.0407 26.9116 76.0407 25.3684ZM78.8082 30.8061C77.3875 30.8061 76.1911 31.9818 76.1911 33.378C76.1911 34.7741 77.3875 35.9498 78.8082 35.9498C80.2289 35.9498 81.4253 34.7741 81.4253 33.378C81.4253 31.9818 80.3037 30.8061 78.8082 30.8061ZM68.2643 25.442C68.2643 24.1193 69.3112 23.0906 70.6571 23.0906C72.003 23.0906 73.0499 24.1193 73.0499 25.442C73.0499 26.7647 72.003 27.7934 70.6571 27.7934C69.3112 27.7934 68.2643 26.7647 68.2643 25.442Z" fill="#2CBFBE"/>
<path d="M137.058 20.3715C136.759 20.3715 136.535 20.6654 136.535 20.8858V41.2402C136.535 41.5341 136.834 41.7546 137.058 41.7546H139.526C139.825 41.7546 140.049 41.4606 140.049 41.2402V20.8858C140.049 20.5919 139.75 20.3715 139.526 20.3715H137.058Z" fill="#2CBFBE"/>
<path d="M138.406 11.7739C137.06 11.7739 136.013 12.8027 136.013 14.1253C136.013 15.448 137.06 16.4767 138.406 16.4767C139.752 16.4767 140.799 15.448 140.799 14.1253C140.799 12.8027 139.677 11.7739 138.406 11.7739Z" fill="#2CBFBE"/>
<path d="M190.149 20.3715C189.85 20.3715 189.626 20.6654 189.626 20.8858V41.2402C189.626 41.5341 189.925 41.7546 190.149 41.7546H192.617C192.916 41.7546 193.14 41.4606 193.14 41.2402V20.8858C193.14 20.5919 192.841 20.3715 192.617 20.3715H190.149Z" fill="#2CBFBE"/>
<path d="M191.347 11.7739C190.001 11.7739 188.954 12.8027 188.954 14.1253C188.954 15.448 190.001 16.4767 191.347 16.4767C192.693 16.4767 193.739 15.448 193.739 14.1253C193.739 12.8027 192.693 11.7739 191.347 11.7739Z" fill="#2CBFBE"/>
<path fill-rule="evenodd" clip-rule="evenodd" d="M216.594 39.5302C216.578 39.6009 216.54 39.6857 216.45 39.7706C216.45 39.9175 216.295 40.0645 215.983 39.991L216.102 40.128C216.086 40.1343 216.072 40.138 216.059 40.138H215.514V39.9175V39.2562H216.059C216.215 39.2562 216.371 39.2562 216.449 39.4032C216.542 39.4032 216.58 39.4561 216.594 39.5302ZM216.594 39.5302C216.606 39.4784 216.606 39.4342 216.606 39.4032V39.2562C216.606 39.2562 216.606 39.1092 216.45 39.1092C216.45 39.1092 216.295 38.9623 216.139 38.9623H215.827H215.126V40.7993H215.438V40.138H215.827L216.373 40.7993H216.684L216.102 40.128C216.128 40.118 216.158 40.1014 216.191 40.0832C216.266 40.0414 216.357 39.991 216.449 39.991C216.604 39.991 216.604 39.844 216.604 39.6971C216.604 39.6383 216.604 39.5795 216.594 39.5302Z" fill="#8C98A4"/>
<path fill-rule="evenodd" clip-rule="evenodd" d="M214.152 39.9172C214.152 39.0355 214.974 38.2272 215.872 38.2272C216.844 38.2272 217.591 38.962 217.591 39.9172C217.591 40.799 216.769 41.6073 215.872 41.6073C214.974 41.6073 214.152 40.799 214.152 39.9172ZM214.302 39.9174C214.302 40.7992 214.975 41.4605 215.873 41.4605C216.695 41.4605 217.443 40.7992 217.443 39.9174C217.443 39.0356 216.77 38.3743 215.873 38.3743C214.975 38.3743 214.302 39.0356 214.302 39.9174Z" fill="#8C98A4"/>
<path d="M157.622 23.678C157.922 23.678 158.146 23.3841 158.146 23.1637V20.7388C158.146 20.4449 157.847 20.2244 157.622 20.2244H152.313V12.4354C152.313 12.1415 152.014 11.921 151.79 11.921H149.322C149.023 11.921 148.799 12.2149 148.799 12.4354V20.2244H146.182C145.883 20.2244 145.659 20.5183 145.659 20.7388V23.1637C145.659 23.4576 145.958 23.678 146.182 23.678H148.799V35.4351C148.799 39.0357 151.267 41.3871 154.856 41.3871H157.473C157.772 41.3871 157.996 41.0931 157.996 40.8727V38.4478C157.996 38.1539 157.697 37.9334 157.473 37.9334H155.23C153.51 37.9334 152.313 36.7577 152.313 34.9207V23.6046H157.622V23.678Z" fill="#2CBFBE"/>
<path d="M210.114 23.678C210.413 23.678 210.637 23.3841 210.637 23.1637V20.7388C210.637 20.4449 210.338 20.2244 210.114 20.2244H204.805V12.4354C204.805 12.1415 204.506 11.921 204.281 11.921H201.814C201.515 11.921 201.29 12.2149 201.29 12.4354V20.2244H198.673C198.374 20.2244 198.15 20.5183 198.15 20.7388V23.1637C198.15 23.4576 198.449 23.678 198.673 23.678H201.29V35.4351C201.29 39.0357 203.758 41.3871 207.347 41.3871H209.964C210.263 41.3871 210.488 41.0931 210.488 40.8727V38.4478C210.488 38.1539 210.189 37.9334 209.964 37.9334H207.571C205.852 37.9334 204.655 36.7577 204.655 34.9207V23.6046H210.039L210.114 23.678Z" fill="#2CBFBE"/>
<path d="M121.356 23.6781V41.0197C121.356 41.3136 121.656 41.5341 121.88 41.5341H124.347C124.646 41.5341 124.871 41.2402 124.871 41.0197V23.6781H130.703C131.002 23.6781 131.227 23.3842 131.227 23.1637V20.7388C131.227 20.4449 130.928 20.2245 130.703 20.2245H124.871V15.6686C124.871 13.8316 126.217 12.5824 127.787 12.5824H130.703C131.002 12.5824 131.227 12.2885 131.227 12.068V9.64315C131.227 9.34923 130.928 9.12878 130.703 9.12878H127.937C124.273 9.12878 121.356 12.1415 121.356 15.5951V20.2245H118.739C118.44 20.2245 118.216 20.5184 118.216 20.7388V23.1637C118.216 23.4577 118.515 23.6781 118.739 23.6781H121.356Z" fill="#2CBFBE"/>
<path fill-rule="evenodd" clip-rule="evenodd" d="M174.148 19.5633C177.064 19.5633 179.83 20.739 181.775 22.7964C183.719 24.8539 184.766 27.7197 184.766 30.8794C184.766 38.7419 179.307 42.269 174.073 42.269C168.764 42.269 163.38 38.8154 163.38 30.8794V9.4963C163.38 9.27586 163.604 8.98193 163.903 8.98193H166.371C166.595 8.98193 166.894 9.20238 166.894 9.4963V22.429C168.614 20.739 171.381 19.5633 174.148 19.5633ZM166.822 30.9527C166.822 34.8472 168.766 38.9622 174.075 38.9622C179.384 38.9622 181.254 34.8472 181.328 30.9527C181.328 26.2499 178.412 23.0167 174.075 23.0167C169.738 23.0167 166.822 26.1764 166.822 30.9527Z" fill="#2CBFBE"/>
</svg>
