<svg width="285" height="51" viewBox="0 0 285 51" fill="none" xmlns="http://www.w3.org/2000/svg">
<path d="M104.847 17.6459H87.4128V22.7867H99.8107C99.1908 30.0305 93.1469 33.224 87.4903 33.224C80.2066 33.224 73.8527 27.4601 73.8527 19.4374C73.8527 11.5705 79.8966 5.49501 87.4903 5.49501C93.3793 5.49501 96.7887 9.23375 96.7887 9.23375L100.353 5.49501C100.353 5.49501 95.7039 0.354255 87.2579 0.354255C76.4872 0.276365 68.1961 9.38953 68.1961 19.2816C68.1961 28.94 76.0223 38.3647 87.5678 38.3647C97.7186 38.3647 105.157 31.4325 105.157 21.0731C105.157 18.8921 104.847 17.6459 104.847 17.6459Z" fill="#3780FF"/>
<path fill-rule="evenodd" clip-rule="evenodd" d="M106.786 25.9801C106.786 19.4373 111.9 13.8292 119.029 13.8292C124.918 13.8292 131.272 18.0353 131.349 26.1359C131.349 33.3018 125.925 38.3647 119.184 38.3647C111.745 38.3647 106.786 32.6787 106.786 25.9801ZM125.926 26.136C125.926 21.6183 122.594 18.7364 119.107 18.7364C115.155 18.7364 112.133 21.852 112.211 26.0581C112.211 30.4199 115.233 33.5356 119.107 33.5356C122.672 33.5356 125.926 30.6536 125.926 26.136Z" fill="#FA3913"/>
<path fill-rule="evenodd" clip-rule="evenodd" d="M133.441 25.9801C133.441 19.4373 138.555 13.8292 145.684 13.8292C151.573 13.8292 157.927 18.0353 158.004 26.1359C158.004 33.3018 152.58 38.3647 145.839 38.3647C138.4 38.3647 133.441 32.6787 133.441 25.9801ZM152.581 26.136C152.581 21.6183 149.249 18.7364 145.762 18.7364C141.81 18.7364 138.788 21.852 138.866 26.0581C138.866 30.4199 141.888 33.5356 145.762 33.5356C149.327 33.5356 152.581 30.6536 152.581 26.136Z" fill="#FCBD06"/>
<path fill-rule="evenodd" clip-rule="evenodd" d="M160.097 26.1358C160.097 19.6709 165.212 13.907 171.798 13.907C174.665 13.907 176.835 14.9974 178.229 16.711V14.608H183.343V36.6509C183.343 45.2968 178.384 49.425 171.875 49.425C165.909 49.425 162.577 45.7641 160.95 42.2591L165.677 40.3118C166.374 41.8696 168.234 44.6736 171.953 44.6736C175.827 44.6736 178.384 42.1033 178.384 37.8972V35.4826C176.912 37.1183 175.13 38.4424 171.643 38.4424C166.064 38.4424 160.097 33.4574 160.097 26.1358ZM178.771 26.2137C178.771 21.5403 175.439 18.7363 172.262 18.7363C168.853 18.7363 165.521 21.4624 165.443 26.2916C165.443 30.7314 168.698 33.6133 172.185 33.6133C175.517 33.6133 178.771 31.0429 178.771 26.2137Z" fill="#3780FF"/>
<path fill-rule="evenodd" clip-rule="evenodd" d="M194.887 26.058C194.887 18.7363 200.079 13.8292 206.278 13.8292C211.082 13.8292 214.724 17.1006 216.351 20.8394L217.203 22.8645L200.854 29.7188C201.861 31.5882 203.411 33.4576 206.82 33.4576C209.842 33.4576 211.702 31.8219 212.786 30.1083L217.048 32.9902C215.189 35.4827 211.934 38.3647 206.82 38.3647C200.699 38.3647 194.887 33.7691 194.887 26.058ZM211.005 21.2288C210.23 19.7489 208.68 18.5806 206.433 18.5806C202.946 18.5806 199.537 22.2414 200.157 25.8244L211.005 21.2288Z" fill="#FA3913"/>
<path d="M187.137 37.6634H192.484V1.52234H187.137V37.6634Z" fill="#38B137"/>
</svg>
