<svg width="285" height="51" viewBox="0 0 285 51" fill="none" xmlns="http://www.w3.org/2000/svg">
<path fill-rule="evenodd" clip-rule="evenodd" d="M105.885 19.7909L105.885 19.7909L105.885 19.7909C107.371 19.755 108.822 19.7199 109.917 19.7199V25.9058C107.15 25.9058 103.86 25.9058 101.467 26.0531V35.2583C102.632 35.1881 103.805 35.1104 104.983 35.0323L104.983 35.0323L104.983 35.0323L104.983 35.0323L104.983 35.0323L104.984 35.0323L104.984 35.0323C107.51 34.8649 110.059 34.696 112.609 34.5955V40.5605L95.1864 41.8861V5.28613H112.609V11.472H101.467V19.8672C102.731 19.8672 104.327 19.8286 105.885 19.7909L105.885 19.7909ZM84.803 42.924H84.8029C83.9422 43.0122 83.0683 43.1017 82.1736 43.2119L74.9952 22.4449V44.0956C72.752 44.3165 70.733 44.6111 68.5646 44.9793V5.28639H74.5465L82.697 27.8208V5.28639H89.0528V42.4018C87.6485 42.6323 86.2441 42.7763 84.8031 42.924H84.803H84.803H84.803ZM129.431 11.5457H135.936C135.936 11.5457 135.936 5.28613 136.011 5.28613H116.644V11.5457H123.15V40.1187C125.169 40.045 127.337 40.045 129.431 40.045V11.5457ZM146.182 19.4253H154.781V25.6113H146.182V39.6768H139.976V5.28613H157.548V11.472H146.182V19.4253ZM174.312 34.5234C172.149 34.3982 169.97 34.272 167.791 34.2273V5.28613H161.51V40.045C167.268 40.1923 172.876 40.4869 178.484 40.8551V34.7428C177.103 34.685 175.711 34.6044 174.312 34.5234L174.312 34.5234ZM183.792 41.2969C184.492 41.348 185.2 41.3902 185.915 41.4327C187.262 41.5129 188.63 41.5944 189.998 41.7388V5.28613H183.792V41.2969ZM209.517 24.1384L217.518 5.28613H210.564L206.152 15.6696L202.04 5.28613H195.31L202.638 23.9175L194.562 42.0334C195.46 42.1512 196.357 42.2454 197.254 42.3397C198.6 42.4811 199.946 42.6225 201.292 42.8434L205.928 32.3126L210.415 43.8008C211.253 43.9297 212.081 44.0677 212.907 44.2052C214.44 44.4604 215.963 44.714 217.518 44.9054L209.517 24.1384Z" fill="#D81F26"/>
</svg>
