<svg width="285" height="50" viewBox="0 0 285 50" fill="none" xmlns="http://www.w3.org/2000/svg">
<path d="M87.9477 4.985C87.2657 2.75035 84.8786 1.54708 82.662 2.23466C80.4454 2.92225 79.2519 5.32879 79.9339 7.56343L90.8463 41.4269C91.6136 43.4897 93.8302 44.6929 95.9615 44.0913C98.1781 43.4037 99.5421 41.0831 98.8601 38.8485C98.8601 38.7625 87.9477 4.985 87.9477 4.985" fill="#FAAD13"/>
<path d="M71.0681 10.5715C70.386 8.3369 67.9989 7.13363 65.7824 7.82121C63.5658 8.5088 62.3722 10.9153 63.0543 13.15L73.9667 47.0135C74.7339 49.0762 76.9505 50.2795 79.0818 49.6778C81.2984 48.9903 82.6625 46.6697 81.9804 44.435C81.9804 44.3491 71.0681 10.5715 71.0681 10.5715" fill="#36B37E"/>
<path d="M101.758 33.0901C103.974 32.4026 105.168 29.996 104.486 27.7614C103.804 25.5267 101.417 24.3234 99.1999 25.011L65.525 35.9264C63.4789 36.6999 62.2853 38.9346 62.8821 41.0833C63.5641 43.3179 65.866 44.6931 68.0826 44.0055C68.2531 44.0055 101.758 33.0901 101.758 33.0901" fill="#D81F26"/>
<path opacity="0.2" d="M72.5149 42.6302C74.7314 41.9426 77.5448 40.9972 80.5286 39.9658C79.8466 37.7312 78.9088 34.8949 77.8858 31.8867L69.872 34.5511L72.5149 42.6302" fill="white"/>
<path opacity="0.2" d="M89.4834 37.0437C92.5525 36.0123 95.3658 35.1528 97.4971 34.3793C96.8151 32.1446 95.8773 29.3083 94.8543 26.3002L86.8405 28.9646L89.4834 37.0437" fill="white"/>
<path d="M96.216 15.9864C98.4326 15.2988 99.6261 12.8922 98.9441 10.6576C98.2621 8.42296 95.875 7.21969 93.6584 7.90727L60.0687 18.9086C58.0227 19.6821 56.8291 21.9168 57.4259 24.0655C58.1079 26.3861 60.4097 27.7612 62.6263 26.9877C62.7116 26.9877 96.216 15.9864 96.216 15.9864" fill="#00B8D9"/>
<path opacity="0.2" d="M67.0607 25.5268C69.2773 24.8392 72.0906 23.8938 75.0745 22.8624C74.0514 19.7683 73.1989 16.932 72.4316 14.7833L64.4178 17.4477L67.0607 25.5268" fill="white"/>
<path opacity="0.2" d="M83.9403 20.0257C87.0094 18.9943 89.8228 18.1349 91.9541 17.3613C90.9311 14.2672 90.0785 11.4309 89.3113 9.28223L81.2975 11.9466L83.9403 20.0257" fill="white"/>
<path d="M135.773 13.9236C137.223 14.6112 137.393 15.0409 136.2 17.2756C135.006 19.5962 134.75 19.6821 133.216 19.0805C131.34 18.307 129.039 17.7053 127.504 17.7053C125.032 17.7053 123.412 18.5648 123.412 19.94C123.412 24.4093 137.649 22.0027 137.649 31.6289C137.649 36.442 133.557 39.622 127.419 39.622C124.179 39.622 120.172 38.5047 117.444 37.1295C116.08 36.442 115.995 36.0122 117.188 33.6916C118.211 31.7148 118.552 31.457 120.002 32.0586C122.389 33.09 125.287 33.8635 127.333 33.8635C129.635 33.8635 131.085 32.9181 131.085 31.5429C131.085 27.1596 116.592 29.2223 116.592 19.94C116.592 15.0409 120.684 11.689 126.737 11.689C129.635 11.9468 133.301 12.8063 135.773 13.9236" fill="#183B56"/>
<path d="M147.282 2.57848V38.3328C147.282 38.8485 146.685 39.4501 145.918 39.4501H142.167C141.314 39.4501 140.803 38.8485 140.803 38.3328V2.57848C140.803 0.773578 141.314 0.68763 144.042 0.68763C147.112 0.601682 147.282 0.859526 147.282 2.57848" fill="#183B56"/>
<path fill-rule="evenodd" clip-rule="evenodd" d="M173.713 37.989V22.6043C173.713 15.9004 169.194 11.9468 162.033 11.9468C158.793 11.9468 155.213 12.9782 152.655 14.6971C151.291 15.5566 151.291 15.9863 152.655 18.135C154.104 20.2837 154.36 20.3697 155.724 19.5961C157.429 18.5648 159.561 17.8772 161.351 17.8772C165.102 17.8772 167.319 19.5961 167.319 22.4324V24.2373C165.528 23.4638 163.312 23.0341 160.925 23.0341C154.531 23.0341 150.353 26.472 150.353 31.6288C150.353 36.4419 154.104 39.7079 159.646 39.7079C162.544 39.7079 165.443 38.5047 167.404 36.27L167.319 37.903C167.233 38.7625 167.83 39.3642 168.683 39.3642H172.348C173.116 39.3642 173.713 38.8485 173.713 37.989ZM160.412 34.5509C158.11 34.5509 156.575 33.3476 156.575 31.5427C156.575 29.3081 158.877 27.5891 162.287 27.5891C163.907 27.5891 165.783 27.847 167.232 28.4486V30.8551C165.783 33.1757 163.225 34.5509 160.412 34.5509Z" fill="#183B56"/>
<path d="M199.032 14.0096C200.396 14.7831 200.396 15.2128 198.947 17.5334C197.583 19.6821 197.327 19.854 195.792 19.0805C194.684 18.4789 192.809 17.9632 191.359 17.9632C186.67 17.9632 183.601 21.0573 183.601 25.7844C183.601 30.6835 186.67 33.9495 191.359 33.9495C192.979 33.9495 195.025 33.3479 196.304 32.5743C197.668 31.8008 197.924 31.8008 199.373 33.9495C200.652 35.9263 200.652 36.356 199.458 37.2155C197.412 38.6766 194.087 39.7939 191.189 39.7939C182.578 39.7939 176.781 34.2073 176.781 25.8704C176.781 17.5334 182.578 12.0328 191.274 12.0328C194.002 11.9468 197.071 12.8063 199.032 14.0096" fill="#183B56"/>
<path d="M227.251 36.0122C228.359 37.3874 227.933 37.9031 225.205 38.8485C222.477 39.8799 222.05 39.7939 221.113 38.5047L213.355 28.105L209.859 31.457V38.2469C209.859 38.7625 209.262 39.3642 208.495 39.3642H204.744C203.891 39.3642 203.38 38.7625 203.38 38.2469V2.57848C203.38 0.77357 203.891 0.687622 206.62 0.687622C209.774 0.687622 209.859 0.945466 209.859 2.57848V22.8622L220.431 12.6344C221.624 11.5171 222.221 11.603 224.352 12.9782C226.654 14.4393 226.825 14.869 225.716 15.9864L217.873 23.7217L227.251 36.0122" fill="#183B56"/>
</svg>
